<?xml version="1.0" encoding="UTF-8" standalone="no"?>
<!DOCTYPE svg PUBLIC "-//W3C//DTD SVG 20010904//EN"
"http://www.w3.org/TR/2001/REC-SVG-20010904/DTD/svg10.dtd">
<!-- Created with Inkscape (http://www.inkscape.org/) -->
<svg
   id="svg548"
   sodipodi:version="0.32"
   width="400pt"
   height="400pt"
   sodipodi:docbase="/var/www/html/svg_gallery/svg/toys"
   sodipodi:docname="rubik.svg"
   inkscape:version="0.38.1"
   xmlns="http://www.w3.org/2000/svg"
   xmlns:inkscape="http://www.inkscape.org/namespaces/inkscape"
   xmlns:sodipodi="http://sodipodi.sourceforge.net/DTD/sodipodi-0.dtd"
   xmlns:xlink="http://www.w3.org/1999/xlink">
  <defs
     id="defs550" />
  <sodipodi:namedview
     id="base"
     showgrid="true"
     inkscape:zoom="0.77250000"
     inkscape:cx="200.00000"
     inkscape:cy="158.14557"
     inkscape:window-width="820"
     inkscape:window-height="646"
     inkscape:window-x="0"
     inkscape:window-y="24" />
  <g
     id="g841"
     style="stroke:#000000;stroke-opacity:1.0000000;stroke-width:10.000000;stroke-dasharray:none;stroke-linejoin:round;">
    <path
       style="fill:#ffff00;fill-rule:evenodd;stroke:#000000;stroke-opacity:1.0000000;stroke-width:10.000000;stroke-linejoin:round;stroke-linecap:butt;fill-opacity:1;stroke-dasharray:none;"
       d="M 288.75 237.5 L 446.25 80 L 232.5 12.5 C 232.5 12.5 48.75 120 50 120 C 51.25 120 288.75 241.25 288.75 237.5 z "
       id="path782" />
    <path
       style="fill:#00ff00;fill-rule:evenodd;stroke:#000000;stroke-opacity:1.0000000;stroke-width:10.000000;stroke-linejoin:round;stroke-linecap:butt;fill-opacity:1;stroke-dasharray:none;"
       d="M 290 487.5 L 287.5 238.75 L 50 122.5 L 50 352.5 L 290 487.5 z "
       id="path780" />
    <path
       style="fill:#ff0000;fill-rule:evenodd;stroke:#000000;stroke-opacity:1.0000000;stroke-width:10.000000;stroke-linejoin:round;stroke-linecap:butt;fill-opacity:1;stroke-dasharray:none;"
       d="M 287.5 240 C 287.5 238.75 446.25 81.25 446.25 81.25 L 446.25 321.25 C 446.25 321.25 292.5 487.5 291.25 487.5 C 290 487.5 287.5 242.5 287.5 240 z "
       id="path779" />
    <path
       style="fill:none;fill-rule:evenodd;stroke:#000000;stroke-opacity:1.0000000;stroke-width:10.000000;stroke-linejoin:round;stroke-linecap:butt;fill-opacity:1;stroke-dasharray:none;"
       d="M 84.7922 148.96 C 85.6401 148.96 324.754 254.103 324.754 254.103 L 485.012 111.652 L 268.791 53.1451 L 84.7922 148.96 z "
       id="path554"
       transform="matrix(1.000000,0.000000,0.000000,1.119522,-36.46066,-46.20438)"
       sodipodi:nodetypes="ccccc" />
    <path
       style="fill:none;fill-rule:evenodd;stroke:#000000;stroke-opacity:1.0000000;stroke-width:10.000000;stroke-linejoin:round;stroke-linecap:butt;fill-opacity:1;stroke-dasharray:none;"
       d="M 85.6402 149.808 C 85.6402 150.656 87.336 355.853 86.4881 355.005 L 326.45 477.954 L 323.058 253.255 L 85.6402 149.808 z "
       id="path555"
       transform="matrix(1.000000,0.000000,0.000000,1.119522,-36.46066,-46.20438)"
       sodipodi:nodetypes="ccccc" />
    <path
       transform="matrix(1.000000,0.000000,0.000000,1.119522,-36.46066,-46.20438)"
       style="font-size:12;fill:none;fill-rule:evenodd;stroke:#000000;stroke-width:10.000000;stroke-linejoin:round;stroke-opacity:1.0000000;stroke-dasharray:none;fill-opacity:1;"
       d="M 326.45 478.802 L 323.906 254.103 L 485.012 111.652 L 482.468 328.72 L 326.45 478.802 z "
       id="path557" />
    <path
       sodipodi:type="arc"
       style="fill-rule:evenodd;stroke:#000000;fill:none;fill-opacity:1;stroke-opacity:1.0000000;stroke-width:10.000000;stroke-linejoin:round;stroke-linecap:butt;stroke-dasharray:none;"
       id="path560"
       d="M 211.132584 456.755981 A 0.423958 0.000000 0 1 0 210.284653,456.755981 A 0.423958 0 0 1 0 211.133 456.756 L 210.708618 456.755981 z"
       sodipodi:cx="210.708618"
       sodipodi:cy="456.755981"
       sodipodi:rx="0.423958"
       sodipodi:ry="0.000000"
       transform="matrix(1.000000,0.000000,0.000000,1.119522,19.50223,17.44385)" />
    <path
       sodipodi:type="arc"
       style="fill-rule:evenodd;stroke:#000000;fill:none;fill-opacity:1;stroke-opacity:1.0000000;stroke-width:10.000000;stroke-linejoin:round;stroke-linecap:butt;stroke-dasharray:none;"
       id="path564"
       d="M 211.132584 456.755981 A 0.423958 0.000000 0 1 0 210.284653,456.755981 A 0.423958 0 0 1 0 211.133 456.756 L 210.708618 456.755981 z"
       sodipodi:cx="210.708618"
       sodipodi:cy="456.755981"
       sodipodi:rx="0.423958"
       sodipodi:ry="0.000000"
       transform="matrix(1.000000,0.000000,0.000000,1.119522,147.5384,90.36514)" />
    <path
       sodipodi:type="arc"
       style="fill-rule:evenodd;stroke:#000000;fill:none;fill-opacity:1;stroke-opacity:1.0000000;stroke-width:10.000000;stroke-linejoin:round;stroke-linecap:butt;stroke-dasharray:none;"
       id="path570"
       d="M 211.132584 456.755981 A 0.423958 0.000000 0 1 0 210.284653,456.755981 A 0.423958 0 0 1 0 211.133 456.756 L 210.708618 456.755981 z"
       sodipodi:cx="210.708618"
       sodipodi:cy="456.755981"
       sodipodi:rx="0.423958"
       sodipodi:ry="0.000000"
       transform="matrix(1.000000,0.000000,0.000000,1.119522,-66.98582,81.03806)" />
    <path
       sodipodi:type="arc"
       style="fill-rule:evenodd;stroke:#000000;fill:none;fill-opacity:1;stroke-opacity:1.0000000;stroke-width:10.000000;stroke-linejoin:round;stroke-linecap:butt;stroke-dasharray:none;"
       id="path571"
       d="M 211.132584 456.755981 A 0.423958 0.000000 0 1 0 210.284653,456.755981 A 0.423958 0 0 1 0 211.133 456.756 L 210.708618 456.755981 z"
       sodipodi:cx="210.708618"
       sodipodi:cy="456.755981"
       sodipodi:rx="0.423958"
       sodipodi:ry="0.000000"
       transform="matrix(1.000000,0.000000,0.000000,1.119522,61.05037,153.9594)" />
    <path
       style="fill:none;fill-rule:evenodd;stroke:#000000;stroke-opacity:1.0000000;stroke-width:10.000000;stroke-linejoin:round;stroke-linecap:butt;fill-opacity:1;stroke-dasharray:none;"
       d="M 207.741 440.411 C 207.741 438.715 207.741 199.836 207.741 199.836 L 374.781 57.3847 "
       id="path762"
       sodipodi:nodetypes="ccc" />
    <path
       style="fill:none;fill-rule:evenodd;stroke:#000000;stroke-opacity:1.0000000;stroke-width:10.000000;stroke-linejoin:round;stroke-linecap:butt;fill-opacity:1;stroke-dasharray:none;"
       d="M 120.405 390.618 L 120.405 157.44 L 302.708 34.4909 "
       id="path763"
       sodipodi:nodetypes="ccc" />
    <path
       style="fill:none;fill-rule:evenodd;stroke:#000000;stroke-opacity:1.0000000;stroke-width:10.000000;stroke-linejoin:round;stroke-linecap:butt;fill-opacity:1;stroke-dasharray:none;"
       d="M 348.496 423.687 C 347.648 423.687 345.952 181.181 345.952 181.181 L 113.622 81.1266 "
       id="path764"
       sodipodi:nodetypes="ccc" />
    <path
       style="fill:none;fill-rule:evenodd;stroke:#000000;stroke-opacity:1.0000000;stroke-width:10.000000;stroke-linejoin:round;stroke-linecap:butt;fill-opacity:1;stroke-dasharray:none;"
       d="M 401.068 371.964 C 401.068 371.964 399.371 128.61 399.371 127.762 C 399.371 126.914 178.064 44.6659 178.064 44.6659 "
       id="path765"
       sodipodi:nodetypes="ccc" />
    <path
       style="fill:none;fill-rule:evenodd;stroke:#000000;stroke-opacity:1.0000000;stroke-width:10.000000;stroke-linejoin:round;stroke-linecap:butt;fill-opacity:1;stroke-dasharray:none;"
       d="M 50.0274 199.836 L 289.142 326.176 L 447.703 149.808 "
       id="path766"
       sodipodi:nodetypes="ccc" />
    <path
       style="fill:none;fill-rule:evenodd;stroke:#000000;stroke-opacity:1.0000000;stroke-width:10.000000;stroke-linejoin:round;stroke-linecap:butt;fill-opacity:1;stroke-dasharray:none;"
       d="M 48.3316 271.061 C 50.0274 271.061 288.294 409.272 288.294 409.272 L 447.703 230.361 "
       id="path767"
       sodipodi:nodetypes="ccc" />
  </g>

  <rdf:RDF 
   xmlns="http://web.resource.org/cc/"
   xmlns:dc="http://purl.org/dc/elements/1.1/"
   xmlns:rdf="http://www.w3.org/1999/02/22-rdf-syntax-ns#">
  <Work rdf:about="">
    <dc:title>Clipart by Nicu Buculei - piggybank</dc:title>
    <dc:rights>
       <Agent>
         <dc:title>Nicu Buculei</dc:title>
       </Agent>
    </dc:rights>
    <dc:type rdf:resource="http://purl.org/dc/dcmitype/StillImage" />
    <license rdf:resource="http://web.resource.org/cc/PublicDomain" />
  </Work>
   
  <License rdf:about="http://web.resource.org/cc/PublicDomain">
     <permits rdf:resource="http://web.resource.org/cc/Reproduction" />
     <permits rdf:resource="http://web.resource.org/cc/Distribution" />
     <permits rdf:resource="http://web.resource.org/cc/DerivativeWorks" />
  </License>

</rdf:RDF>
</svg>
